<?xml version="1.0" standalone="no"?><!DOCTYPE svg PUBLIC "-//W3C//DTD SVG 1.1//EN" "http://www.w3.org/Graphics/SVG/1.1/DTD/svg11.dtd"><svg class="icon" width="48px" height="48.00px" viewBox="0 0 1024 1024" version="1.1" xmlns="http://www.w3.org/2000/svg"><path d="M930.909091 83.037091l32.581818 32.581818a46.149818 46.149818 0 0 1 0 65.163636L506.740364 637.672727a46.149818 46.149818 0 0 1-65.163637 0l-32.581818-32.581818a46.149818 46.149818 0 0 1 0-65.163636L865.745455 83.037091a46.149818 46.149818 0 0 1 65.163636 0zM651.636364 69.818182h279.272727a46.545455 46.545455 0 0 1 46.545454 46.545454v46.545455a46.545455 46.545455 0 0 1-46.545454 46.545454H651.636364a46.545455 46.545455 0 0 1-46.545455-46.545454V116.363636a46.545455 46.545455 0 0 1 46.545455-46.545454z m232.727272 0h46.545455a46.545455 46.545455 0 0 1 46.545454 46.545454v279.272728a46.545455 46.545455 0 0 1-46.545454 46.545454h-46.545455a46.545455 46.545455 0 0 1-46.545454-46.545454V116.363636a46.545455 46.545455 0 0 1 46.545454-46.545454z" fill="#e5e5e5" /><path d="M884.363636 954.181818H93.090909a46.545455 46.545455 0 0 1-46.545454-46.545454V116.363636a46.545455 46.545455 0 0 1 46.545454-46.545454h279.272727v46.545454H93.090909v791.272728h791.272727V628.363636h46.545455v279.272728a46.545455 46.545455 0 0 1-46.545455 46.545454z m0-805.934545L434.688 597.922909a23.063273 23.063273 0 1 1-32.581818-32.581818L851.037091 116.363636H605.090909V69.818182h279.272727a45.940364 45.940364 0 0 1 46.545455 46.545454v279.272728h-46.545455V148.247273z" fill="#1c1c1c" /></svg>