<?xml version="1.0" standalone="no"?><!DOCTYPE svg PUBLIC "-//W3C//DTD SVG 1.1//EN" "http://www.w3.org/Graphics/SVG/1.1/DTD/svg11.dtd"><svg class="icon" width="48px" height="48.00px" viewBox="0 0 1024 1024" version="1.1" xmlns="http://www.w3.org/2000/svg"><path d="M863.5 416.1c-52.9 0-95.8 42.9-95.8 95.8s42.9 95.8 95.8 95.8 95.8-42.9 95.8-95.8-42.9-95.8-95.8-95.8z m-352.2 0c-52.9 0-95.8 42.9-95.8 95.8s42.9 95.8 95.8 95.8 95.8-42.9 95.8-95.8c0.1-52.9-42.8-95.8-95.8-95.8z m-351.5 0c-52.9 0-95.8 42.9-95.8 95.8s42.9 95.8 95.8 95.8 95.8-42.9 95.8-95.8-42.9-95.8-95.8-95.8z" /></svg>