<?xml version="1.0" standalone="no"?><!DOCTYPE svg PUBLIC "-//W3C//DTD SVG 1.1//EN" "http://www.w3.org/Graphics/SVG/1.1/DTD/svg11.dtd"><svg class="icon" width="48px" height="48.00px" viewBox="0 0 1024 1024" version="1.1" xmlns="http://www.w3.org/2000/svg"><path d="M777.142857 440.685714c-7.314286-12.8-18.285714-21.942857-32.914286-25.6-5.485714-128-109.714286-230.4-239.542857-230.4-128 0-234.057143 102.4-239.542857 228.571429-14.628571 1.828571-29.257143 10.971429-36.571428 25.6-34.742857 10.971429-58.514286 54.857143-58.514286 111.542857 0 54.857143 23.771429 100.571429 58.514286 111.542857 9.142857 16.457143 25.6 25.6 43.885714 25.6 27.428571 0 51.2-21.942857 51.2-51.2v-173.714286c0-18.285714-9.142857-32.914286-23.771429-42.057142 1.828571-109.714286 91.428571-199.314286 202.971429-199.314286 109.714286 0 201.142857 87.771429 202.971428 197.485714-16.457143 9.142857-25.6 25.6-25.6 43.885714V640c0 18.285714 10.971429 36.571429 27.428572 43.885714v25.6c0 51.2-40.228571 91.428571-91.428572 91.428572h-45.714285c-10.971429 0-18.285714 7.314286-18.285715 18.285714s7.314286 18.285714 18.285715 18.285714h45.714285c71.314286 0 128-56.685714 128-128v-21.942857c12.8-3.657143 25.6-12.8 32.914286-25.6 34.742857-10.971429 58.514286-54.857143 58.514286-111.542857 0-53.028571-25.6-98.742857-58.514286-109.714286zM287.085714 640c0 7.314286-5.485714 14.628571-14.628571 14.628571-5.485714 0-12.8-3.657143-12.8-10.971428l-3.657143-14.628572h-12.8c-16.457143-1.828571-36.571429-32.914286-36.571429-76.8 0-43.885714 20.114286-74.971429 36.571429-76.8h12.8l3.657143-12.8c1.828571-5.485714 7.314286-10.971429 12.8-10.971428 7.314286 0 14.628571 5.485714 14.628571 14.628571V640z m475.428572-10.971429H749.714286l-3.657143 12.8c-1.828571 5.485714-7.314286 10.971429-12.8 10.971429-7.314286 0-14.628571-5.485714-14.628572-14.628571v-173.714286c0-7.314286 5.485714-14.628571 14.628572-14.628572 5.485714 0 12.8 3.657143 12.8 10.971429l3.657143 14.628571h12.8c16.457143 1.828571 36.571429 32.914286 36.571428 76.8 0 43.885714-20.114286 74.971429-36.571428 76.8z" fill="#231815" /><path d="M499.2 806.4c-3.657143 3.657143-5.485714 7.314286-5.485714 12.8 0 5.485714 1.828571 9.142857 5.485714 12.8 3.657143 3.657143 7.314286 5.485714 12.8 5.485714 5.485714 0 9.142857-1.828571 12.8-5.485714 3.657143-3.657143 5.485714-9.142857 5.485714-12.8 0-5.485714-1.828571-9.142857-5.485714-12.8-7.314286-7.314286-18.285714-7.314286-25.6 0z" fill="#231815" /></svg>