<?xml version="1.0" standalone="no"?><!DOCTYPE svg PUBLIC "-//W3C//DTD SVG 1.1//EN" "http://www.w3.org/Graphics/SVG/1.1/DTD/svg11.dtd"><svg class="icon" width="48px" height="48.00px" viewBox="0 0 1024 1024" version="1.1" xmlns="http://www.w3.org/2000/svg"><path d="M829.487911 488.777089c-29.217439 1.107217-43.718711 23.069415-43.980677 69.125357-0.424672 74.618465 0.25992 149.247162-0.275269 223.865627-0.418532 58.217936-11.900028 70.305229-70.793346 70.569242-149.243069 0.667196-298.490232 0.629333-447.733301 0.031722-61.683874-0.248663-72.132854-11.446703-72.234161-74.29817-0.287549-178.364317-0.10847-356.731704-0.077771-535.096021 0.001023-9.096169-0.13917-18.23327 0.583285-27.284413 2.218528-27.76946 17.714454-43.033096 45.226041-45.196365 14.479783-1.136893 29.103852-0.544399 43.662429-0.552585 101.923344-0.061398 203.849758 0.443092 305.767985-0.36225 37.81935-0.298805 56.615439-15.948227 57.853639-43.61024 1.286296-28.77844-16.582677-45.778626-54.342676-45.99966-127.396505-0.750083-254.82371-1.537006-382.192585 0.571005-60.902068 1.004887-100.435457 42.084491-106.665345 103.205547-1.654686 16.240893-1.251503 32.718169-1.269923 49.086975-0.105401 92.823082-0.051165 185.647187-0.051165 278.469246 0.029676 0 0.057305 0 0.084934 0 0 101.925391-1.02126 203.859991 0.317225 305.764915 1.111311 84.644819 44.12394 126.740566 129.545448 127.143749 171.081447 0.803295 342.172103 0.818645 513.25355 0.00921 85.549421-0.403183 128.425951-42.699498 129.504516-126.977973 1.11745-87.34737 0.671289-174.72544 0.104377-262.084067C875.478362 509.525646 859.378685 487.645312 829.487911 488.777089z"  /><path d="M905.789715 134.822638c-17.720593-14.248516-37.137829-14.317077-55.447846-1.790786-10.380418 7.103792-19.064194 16.811898-28.058033 25.799596C662.621463 318.363861 502.968299 477.908554 343.549473 637.684514c-11.455913 11.481496-23.734564 23.405059-31.019481 37.509289-14.547321 28.16855 6.831592 61.061704 48.710398 62.711274 10.386558-7.755638 28.999474-18.48705 43.719734-33.126468C566.282301 544.329313 727.011982 383.287523 887.827621 222.332714c8.986675-8.994861 18.790972-17.699104 25.590841-28.234041C926.537248 173.776835 922.870742 148.557454 905.789715 134.822638z"  /></svg>